<svg xmlns="http://www.w3.org/2000/svg" width="380" height="380" viewBox="0 0 380 380">
  <g id="Grupo_6" data-name="Grupo 6" transform="translate(-695 -3822)">
    <g id="Elipse_2" data-name="Elipse 2" transform="translate(695 3822)" fill="#fff" stroke="#707070" stroke-width="1">
      <circle cx="190" cy="190" r="190" stroke="none"/>
      <circle cx="190" cy="190" r="189.5" fill="none"/>
    </g>
    <g id="aws-2" transform="translate(805.332 3890.9)">
      <path id="Trazado_2" data-name="Trazado 2" d="M50.9,34.341a15.4,15.4,0,0,0,.56,4.531,27.248,27.248,0,0,0,1.629,3.665,2.214,2.214,0,0,1,.356,1.171,2.015,2.015,0,0,1-.967,1.527l-3.207,2.138a2.441,2.441,0,0,1-1.324.458,2.342,2.342,0,0,1-1.527-.713,15.749,15.749,0,0,1-1.833-2.393c-.509-.865-1.018-1.833-1.578-3a18.805,18.805,0,0,1-14.966,7.025c-4.276,0-7.687-1.222-10.181-3.665A13.077,13.077,0,0,1,14.1,35.309a13.1,13.1,0,0,1,4.632-10.487c3.105-2.647,7.229-3.971,12.472-3.971a40.305,40.305,0,0,1,5.4.407c1.884.255,3.818.662,5.854,1.12V18.662c0-3.869-.814-6.567-2.393-8.145-1.629-1.578-4.378-2.342-8.3-2.342a23.161,23.161,0,0,0-5.5.662,40.562,40.562,0,0,0-5.5,1.731,14.607,14.607,0,0,1-1.782.662,3.122,3.122,0,0,1-.814.153c-.713,0-1.069-.509-1.069-1.578V7.31a3.221,3.221,0,0,1,.356-1.782A3.812,3.812,0,0,1,18.885,4.46,29.307,29.307,0,0,1,25.3,2.169,30.863,30.863,0,0,1,33.241,1.2c6.058,0,10.487,1.374,13.337,4.123,2.8,2.749,4.225,6.923,4.225,12.523V34.341ZM30.237,42.079a16.5,16.5,0,0,0,5.243-.916A11.344,11.344,0,0,0,40.316,37.9a8.08,8.08,0,0,0,1.731-3.258,18.275,18.275,0,0,0,.509-4.429V28.08a42.513,42.513,0,0,0-4.683-.865,38.358,38.358,0,0,0-4.785-.305c-3.411,0-5.905.662-7.585,2.036A7.1,7.1,0,0,0,23.009,34.8a7.106,7.106,0,0,0,1.884,5.4,7.059,7.059,0,0,0,5.345,1.884Zm40.877,5.5a2.842,2.842,0,0,1-1.934-.509,4.149,4.149,0,0,1-1.069-1.985L56.148,5.732A8.917,8.917,0,0,1,55.69,3.7a1.117,1.117,0,0,1,1.222-1.273H61.9a2.822,2.822,0,0,1,1.985.509A4.165,4.165,0,0,1,64.9,4.918l8.552,33.7L81.4,4.918a3.571,3.571,0,0,1,.967-1.985A3.5,3.5,0,0,1,84.4,2.424h4.072a3.064,3.064,0,0,1,2.036.509,3.43,3.43,0,0,1,.967,1.985L99.52,39.025l8.807-34.107a4.365,4.365,0,0,1,1.018-1.985,3.321,3.321,0,0,1,1.985-.509h4.734A1.132,1.132,0,0,1,117.337,3.7a5.076,5.076,0,0,1-.1.814,7.242,7.242,0,0,1-.356,1.273L104.61,45.133a3.9,3.9,0,0,1-1.069,1.985,3.257,3.257,0,0,1-1.934.509H97.229a3.064,3.064,0,0,1-2.036-.509,3.609,3.609,0,0,1-.967-2.036l-7.89-32.834L78.5,45.032a3.973,3.973,0,0,1-.967,2.036,3.155,3.155,0,0,1-2.036.509Zm65.414,1.374a33.687,33.687,0,0,1-7.839-.916A23.158,23.158,0,0,1,122.835,46a3.668,3.668,0,0,1-1.578-1.425,3.593,3.593,0,0,1-.305-1.425v-2.6c0-1.069.407-1.578,1.171-1.578a2.882,2.882,0,0,1,.916.153c.305.1.764.305,1.273.509a27.69,27.69,0,0,0,5.6,1.782,30.571,30.571,0,0,0,6.058.611c3.207,0,5.7-.56,7.432-1.68a5.482,5.482,0,0,0,2.647-4.836,4.957,4.957,0,0,0-1.374-3.563,12.773,12.773,0,0,0-5.141-2.647l-7.381-2.291c-3.716-1.171-6.465-2.9-8.145-5.192a12.128,12.128,0,0,1-2.545-7.381,11.329,11.329,0,0,1,1.374-5.651A13.089,13.089,0,0,1,126.5,4.612a16.157,16.157,0,0,1,5.294-2.647,22.187,22.187,0,0,1,6.414-.865,25.555,25.555,0,0,1,3.411.2c1.171.153,2.24.356,3.309.56,1.018.255,1.985.509,2.9.814a11.11,11.11,0,0,1,2.138.916,4.4,4.4,0,0,1,1.527,1.273,2.743,2.743,0,0,1,.458,1.68V8.939c0,1.069-.407,1.629-1.171,1.629a5.3,5.3,0,0,1-1.934-.611,23.288,23.288,0,0,0-9.774-1.985A13.139,13.139,0,0,0,132.3,9.4a4.916,4.916,0,0,0-2.393,4.531,4.807,4.807,0,0,0,1.527,3.614,15.206,15.206,0,0,0,5.6,2.8l7.229,2.291c3.665,1.171,6.312,2.8,7.89,4.887a11.519,11.519,0,0,1,2.342,7.127,13.087,13.087,0,0,1-1.324,5.905,13.691,13.691,0,0,1-3.716,4.48,16.409,16.409,0,0,1-5.651,2.851,24.207,24.207,0,0,1-7.28,1.069Z" transform="translate(-6.103)" fill="#252f3e"/>
      <g id="Grupo_1" data-name="Grupo 1" transform="translate(1.668 58.161)">
        <path id="Trazado_3" data-name="Trazado 3" d="M140.046,131.644c-16.748,12.37-41.081,18.937-62,18.937a112.171,112.171,0,0,1-75.7-28.864c-1.578-1.425-.153-3.36,1.731-2.24a152.66,152.66,0,0,0,75.748,20.108,151.157,151.157,0,0,0,57.778-11.81C140.4,126.5,142.8,129.608,140.046,131.644Z" transform="translate(-1.668 -116.114)" fill="#f90" fill-rule="evenodd"/>
        <path id="Trazado_4" data-name="Trazado 4" d="M266.967,120.781c-2.138-2.749-14.152-1.324-19.6-.662-1.629.2-1.884-1.222-.407-2.291,9.57-6.72,25.3-4.785,27.133-2.545,1.833,2.291-.509,18.021-9.468,25.555-1.374,1.171-2.7.56-2.087-.967C264.574,134.831,269.1,123.479,266.967,120.781Z" transform="translate(-121.614 -113.192)" fill="#f90" fill-rule="evenodd"/>
      </g>
    </g>
    <g id="nginx" transform="translate(722.684 4047.859)">
      <path id="Trazado_45" data-name="Trazado 45" d="M27.248,30.206a3.117,3.117,0,0,1-2.208-.914L6.561,10.812V27.084a3.123,3.123,0,0,1-6.245,0V3.273A3.123,3.123,0,0,1,5.647,1.065l18.478,18.48V3.273a3.123,3.123,0,0,1,6.245,0V27.084a3.124,3.124,0,0,1-3.123,3.123M41.707.18l-.858,1.6-6.636,12.06-.858,1.523.858,1.521L40.85,28.556l.9,1.6h17.37l.858-1.756,4.957-9.992,2.225-4.528H62.121l-12.685.039a3.247,3.247,0,0,0-3.167,3.123,3.247,3.247,0,0,0,3.167,3.123l7.65-.039-1.873,3.786H45.377L40.5,15.324l4.919-8.9H55.878l2.439,5.006H64.6L60.641,1.938,59.781.18H41.708M73.341.141A3.243,3.243,0,0,0,70.257,3.3V11.44H76.5V3.3A3.248,3.248,0,0,0,73.341.141M83.35,30.266a3.123,3.123,0,0,1-3.121-3.123V3.333a3.123,3.123,0,0,1,6.245,0V19.6l18.479-18.48a3.122,3.122,0,0,1,5.329,2.208V27.143a3.123,3.123,0,0,1-6.245,0V10.872L85.558,29.352a3.119,3.119,0,0,1-2.208.914m50.062-15.052,9.713-9.678a3.123,3.123,0,0,0-4.408-4.424l-9.728,9.695-9.729-9.695a3.123,3.123,0,0,0-4.409,4.424l9.713,9.678-9.685,9.651a3.122,3.122,0,1,0,4.408,4.423l9.7-9.666,9.7,9.666a3.122,3.122,0,1,0,4.409-4.423l-9.686-9.651M73.341,30.177a3.243,3.243,0,0,1-3.084-3.161V13.945H76.5V27.016a3.25,3.25,0,0,1-3.161,3.161" transform="translate(0 0)" fill="#090"/>
    </g>
    <g id="ubuntu-icon" transform="translate(893.189 3998.27)">
      <ellipse id="Elipse_4" data-name="Elipse 4" cx="11.274" cy="10.547" rx="11.274" ry="10.547" transform="translate(11.811 56.784)" fill="#ff6309"/>
      <ellipse id="Elipse_5" data-name="Elipse 5" cx="11.274" cy="10.547" rx="11.274" ry="10.547" transform="translate(90.683 100.819)" fill="#ffb515"/>
      <path id="Trazado_53" data-name="Trazado 53" d="M142.739,56.386c13.7,0,25.061,9.837,26.942,22.59h18.845a43.414,43.414,0,0,0-12.333-26.728,16.23,16.23,0,0,1-15.059-.373,15.182,15.182,0,0,1-7.865-12.438,47.814,47.814,0,0,0-10.531-1.168,47.1,47.1,0,0,0-19.565,4.2l9.435,15.807A27.874,27.874,0,0,1,142.739,56.386Z" transform="translate(-67.075 -15.382)" fill="#ff6309"/>
      <path id="Trazado_54" data-name="Trazado 54" d="M169.675,159.387c-1.877,12.758-13.243,22.6-26.943,22.6a27.827,27.827,0,0,1-10.133-1.9L123.162,195.9a47.085,47.085,0,0,0,19.569,4.207,47.919,47.919,0,0,0,10.539-1.171,15.182,15.182,0,0,1,7.864-12.454,16.219,16.219,0,0,1,15.064-.371,43.418,43.418,0,0,0,12.32-26.725H169.675Z" transform="translate(-67.067 -88.332)" fill="#c90016"/>
      <path id="Trazado_55" data-name="Trazado 55" d="M78.486,94.745A26,26,0,0,1,88.9,74.05l-9.432-15.8a46.3,46.3,0,0,0-6.255,5.071A43.955,43.955,0,0,0,61.682,81.931a14.987,14.987,0,0,1,0,25.628A43.959,43.959,0,0,0,73.21,126.172a46.3,46.3,0,0,0,6.249,5.07l9.434-15.805A25.994,25.994,0,0,1,78.486,94.745Z" transform="translate(-30.037 -27.414)" fill="#ffb515"/>
      <ellipse id="Elipse_6" data-name="Elipse 6" cx="11.273" cy="10.548" rx="11.273" ry="10.548" transform="translate(90.674 12.73)" fill="#c90016"/>
    </g>
  </g>
</svg>
